<?xml version="1.0" encoding="UTF-8" standalone="no"?><!DOCTYPE svg PUBLIC "-//W3C//DTD SVG 1.1//EN" "http://www.w3.org/Graphics/SVG/1.1/DTD/svg11.dtd"><svg width="100%" height="100%" viewBox="0 0 492 492" version="1.1" xmlns="http://www.w3.org/2000/svg" xmlns:xlink="http://www.w3.org/1999/xlink" xml:space="preserve" xmlns:serif="http://www.serif.com/" style="fill-rule:evenodd;clip-rule:evenodd;stroke-linejoin:round;stroke-miterlimit:2;"><g><path d="M63.84,248.338c-0,0 12.605,-59.884 16.687,-57.467c4.082,2.418 7.805,71.971 7.805,71.971c0,-0 16.227,-76.823 24.291,-71.678c8.064,5.145 24.093,102.548 24.093,102.548" style="fill:none;stroke:#000;stroke-width:5.26px;stroke-linecap:round;stroke-miterlimit:1.5;"/><path d="M155.495,198.82l1.525,59.766" style="fill:none;stroke:#000;stroke-width:5.26px;stroke-linecap:round;stroke-miterlimit:1.5;"/><path d="M146.4,194.544l17.548,-1.344" style="fill:none;stroke:#000;stroke-width:5.26px;stroke-linecap:round;stroke-miterlimit:1.5;"/><path d="M148.02,263.054l13.408,-0.089" style="fill:none;stroke:#000;stroke-width:5.26px;stroke-linecap:round;stroke-miterlimit:1.5;"/><path d="M179.502,213.12c0,0 -7.015,23.919 -3.13,29.896c3.885,5.976 26.44,5.962 26.44,5.962" style="fill:none;stroke:#000;stroke-width:5.26px;stroke-linecap:round;stroke-miterlimit:1.5;"/><path d="M214.726,200.64l-0.406,44.548" style="fill:none;stroke:#000;stroke-width:5.26px;stroke-linecap:round;stroke-miterlimit:1.5;"/><path d="M219.286,224.88l18.382,-22.023" style="fill:none;stroke:#000;stroke-width:5.26px;stroke-linecap:round;stroke-miterlimit:1.5;"/><path d="M225.046,226.32l14.375,28.207" style="fill:none;stroke:#000;stroke-width:5.26px;stroke-linecap:round;stroke-miterlimit:1.5;"/><path d="M257.28,241.92c-0,-0 -6.422,-34.907 -1.218,-41.265c5.203,-6.359 30.498,-9.855 32.438,3.114c1.941,12.969 -19.698,10.604 -18.274,16.89c1.423,6.286 28.094,4.941 26.815,20.824c-1.279,15.883 -32.907,10.977 -32.907,10.977" style="fill:none;stroke:#000;stroke-width:5.26px;stroke-linecap:round;stroke-miterlimit:1.5;"/><path d="M310.445,243.301c-0,-0 0.067,-35.649 7.17,-33.616c7.104,2.032 35.45,45.809 35.45,45.809" style="fill:none;stroke:#000;stroke-width:5.26px;stroke-linecap:round;stroke-miterlimit:1.5;"/><path d="M317.28,233.686l12.96,-2.326" style="fill:none;stroke:#000;stroke-width:5.26px;stroke-linecap:round;stroke-miterlimit:1.5;"/><path d="M362.88,273.84l1.446,7.879" style="fill:none;stroke:#000;stroke-width:5.26px;stroke-linecap:round;stroke-miterlimit:1.5;"/><path d="M374.4,272.4l1.446,7.879" style="fill:none;stroke:#000;stroke-width:5.26px;stroke-linecap:round;stroke-miterlimit:1.5;"/><path d="M358.08,294.105c-0,-0 0.129,3.544 6.96,4.455c7.2,0.96 8.64,-5.04 8.64,-5.04c0,0 2.491,4.29 9.6,1.92c6.48,-2.16 4.8,-6.72 4.8,-6.72" style="fill:none;stroke:#000;stroke-width:5.26px;stroke-linecap:round;stroke-miterlimit:1.5;"/><path d="M372.72,251.76c-0,-0 -8.405,-43.138 -2.948,-49.095c5.457,-5.957 28.388,-14.265 32.148,-1.149c3.761,13.117 -22,19.284 -22.279,24.353c-0.279,5.068 21.39,-11.699 31.719,25.651" style="fill:none;stroke:#000;stroke-width:5.26px;stroke-linecap:round;stroke-miterlimit:1.5;"/><path d="M171.629,282.82c-0,-0 -6.241,3.094 -4.667,13.097c1.574,10.002 7.921,8.895 7.921,8.895" style="fill:none;stroke:#000;stroke-width:5.26px;stroke-linecap:round;stroke-miterlimit:1.5;"/><path d="M187.065,274.728l2.302,25.828" style="fill:none;stroke:#000;stroke-width:5.26px;stroke-linecap:round;stroke-miterlimit:1.5;"/><path d="M198.858,282.789c0,0 -0.926,7.312 1.255,8.693c2.181,1.382 11.83,-0.402 11.83,-0.402" style="fill:none;stroke:#000;stroke-width:5.26px;stroke-linecap:round;stroke-miterlimit:1.5;"/><path d="M216.256,276.308c-0,-0 -0.786,9.605 1.424,11.466c2.21,1.861 11.836,-0.301 11.836,-0.301" style="fill:none;stroke:#000;stroke-width:5.26px;stroke-linecap:round;stroke-miterlimit:1.5;"/><path d="M234.315,272.797c-0,0 1.612,13.888 3.901,16.593c2.12,2.504 9.836,-0.362 9.836,-0.362" style="fill:none;stroke:#000;stroke-width:5.26px;stroke-linecap:round;stroke-miterlimit:1.5;"/><path d="M241.296,281.48l5.483,-0.531" style="fill:none;stroke:#000;stroke-width:5.26px;stroke-linecap:round;stroke-miterlimit:1.5;"/><path d="M240.846,273.917l5.487,-0.873" style="fill:none;stroke:#000;stroke-width:5.26px;stroke-linecap:round;stroke-miterlimit:1.5;"/><path d="M266.953,271.761c-0,0 -9.392,3.701 -7.71,11.533c1.682,7.832 10.408,6.091 12.571,6.079c2.056,-0.012 0.409,-6.153 0.409,-6.153l3.309,-0.924" style="fill:none;stroke:#000;stroke-width:5.26px;stroke-linecap:round;stroke-miterlimit:1.5;"/><path d="M281.032,289.654c0,0 5.499,-21.093 9.294,-21.007c3.794,0.086 13.473,21.522 13.473,21.522" style="fill:none;stroke:#000;stroke-width:5.26px;stroke-linecap:round;stroke-miterlimit:1.5;"/><path d="M288.351,283.519l4.898,-1.105" style="fill:none;stroke:#000;stroke-width:5.26px;stroke-linecap:round;stroke-miterlimit:1.5;"/><path d="M310.786,278.341l3.485,8.316l14.004,-2.031" style="fill:none;stroke:#000;stroke-width:5.26px;stroke-linecap:round;stroke-miterlimit:1.5;"/><path d="M330.594,272.102c0,0 7.227,2.534 8.903,14.213c1.677,11.679 -2.744,14.495 -2.744,14.495" style="fill:none;stroke:#000;stroke-width:5.26px;stroke-linecap:round;stroke-miterlimit:1.5;"/></g></svg>